<svg xmlns:xlink="http://www.w3.org/1999/xlink" xmlns="http://www.w3.org/2000/svg" width="225" height="40" viewBox="0 0 225 40" fill="none"><path fill-rule="evenodd" clip-rule="evenodd" d="M1.54353 29.9582H1.52381L16 3L0 9.42222V30.5778L1.54353 29.9582Z" fill="#2967E0"/><path fill-rule="evenodd" clip-rule="evenodd" d="M1.54352 29.9582L0 30.5778L15.9968 36.9987L14.4762 36.388V29.9582H1.54352ZM16 37L32 30.5778L30.4565 29.9582H17.5238V36.388L16 37Z" fill="#183C81"/><path fill-rule="evenodd" clip-rule="evenodd" d="M30.4565 29.9582L32 30.5778V9.42222L16 3L30.4762 29.9582H30.4565Z" fill="#1246AB"/><path d="M30.4762 29.9658L16 24.1555L1.5238 29.9658H14.4762V36.3789L16 37L17.5238 36.3789V29.9658H30.4762Z" fill="#2966D9"/><path d="M16 24.1556V3L30.4762 29.9658L16 24.1556Z" fill="#2F83ED"/><path d="M16 24.1556V3L1.52381 29.9658L16 24.1556Z" fill="#489AEC"/><path fill-rule="evenodd" clip-rule="evenodd" d="M124.802 15.224C125.464 15.6185 125.987 16.0922 126.37 16.645V7.448H132.162V31H126.466V28.8227C126.076 29.4556 125.522 29.9787 124.802 30.392C123.821 30.968 122.711 31.256 121.474 31.256C120.087 31.256 118.85 30.904 117.762 30.2C116.695 29.4747 115.853 28.472 115.234 27.192C114.615 25.912 114.306 24.4187 114.306 22.712C114.306 21.0267 114.605 19.5547 115.202 18.296C115.821 17.016 116.674 16.0347 117.762 15.352C118.85 14.648 120.087 14.296 121.474 14.296C122.711 14.296 123.821 14.6053 124.802 15.224ZM123.266 26.936C124.29 26.936 125.079 26.584 125.634 25.88C126.189 25.176 126.466 24.1413 126.466 22.776C126.466 21.4747 126.178 20.472 125.602 19.768C125.047 19.0427 124.269 18.68 123.266 18.68C122.221 18.68 121.421 19.032 120.866 19.736C120.311 20.4187 120.034 21.4107 120.034 22.712C120.034 24.0773 120.322 25.1227 120.898 25.848C121.474 26.5733 122.263 26.936 123.266 26.936Z" fill="#282828"/><path d="M47.0537 31L38.9257 8.216H45.0377L49.7213 22.5755L54.7977 8.216H58.8937L63.7754 22.8326L68.6857 8.216H74.3817L66.2217 31H61.4537L56.6818 17.4504L51.8217 31H47.0537Z" fill="#282828"/><path fill-rule="evenodd" clip-rule="evenodd" d="M83.0317 31.256C81.197 31.256 79.6077 30.9147 78.2637 30.232C76.941 29.5493 75.917 28.5787 75.1917 27.32C74.4663 26.04 74.1037 24.5253 74.1037 22.776C74.1037 21.048 74.4663 19.5547 75.1917 18.296C75.917 17.016 76.941 16.0347 78.2637 15.352C79.6077 14.648 81.197 14.296 83.0317 14.296C84.8237 14.296 86.381 14.648 87.7037 15.352C89.0477 16.0347 90.0823 17.016 90.8077 18.296C91.533 19.5547 91.8957 21.048 91.8957 22.776C91.8957 24.5253 91.533 26.04 90.8077 27.32C90.0823 28.5787 89.0477 29.5493 87.7037 30.232C86.381 30.9147 84.8237 31.256 83.0317 31.256ZM83.0317 26.936C84.0343 26.936 84.8023 26.6053 85.3357 25.944C85.8903 25.2827 86.1677 24.2267 86.1677 22.776C86.1677 21.3467 85.901 20.3013 85.3677 19.64C84.8343 18.9787 84.0557 18.648 83.0317 18.648C81.9863 18.648 81.1863 18.9787 80.6317 19.64C80.0983 20.3013 79.8317 21.3467 79.8317 22.776C79.8317 24.2267 80.0983 25.2827 80.6317 25.944C81.1863 26.6053 81.9863 26.936 83.0317 26.936Z" fill="#282828"/><path fill-rule="evenodd" clip-rule="evenodd" d="M98.3649 30.232C99.7089 30.9147 101.298 31.256 103.133 31.256C104.925 31.256 106.482 30.9147 107.805 30.232C109.149 29.5493 110.184 28.5787 110.909 27.32C111.634 26.04 111.997 24.5253 111.997 22.776C111.997 21.048 111.634 19.5547 110.909 18.296C110.184 17.016 109.149 16.0347 107.805 15.352C106.482 14.648 104.925 14.296 103.133 14.296C101.298 14.296 99.7089 14.648 98.3649 15.352C97.0422 16.0347 96.0182 17.016 95.2929 18.296C94.5676 19.5547 94.2049 21.048 94.2049 22.776C94.2049 24.5253 94.5676 26.04 95.2929 27.32C96.0182 28.5787 97.0422 29.5493 98.3649 30.232ZM105.437 25.944C104.904 26.6053 104.136 26.936 103.133 26.936C102.088 26.936 101.288 26.6053 100.733 25.944C100.2 25.2827 99.9329 24.2267 99.9329 22.776C99.9329 21.3467 100.2 20.3013 100.733 19.64C101.288 18.9787 102.088 18.648 103.133 18.648C104.157 18.648 104.936 18.9787 105.469 19.64C106.002 20.3013 106.269 21.3467 106.269 22.776C106.269 24.2267 105.992 25.2827 105.437 25.944Z" fill="#282828"/><path d="M147.859 23.7708L141.045 8.216H136.341V31H141.557V20.6887L145.909 31H149.717L154.044 20.5687L154.069 31H159.317V8.216H154.645L147.859 23.7708Z" fill="#282828"/><path fill-rule="evenodd" clip-rule="evenodd" d="M169.927 31.256C168.54 31.256 167.303 30.9147 166.215 30.232C165.127 29.5493 164.273 28.5787 163.655 27.32C163.057 26.0613 162.759 24.5893 162.759 22.904C162.759 21.1973 163.068 19.704 163.687 18.424C164.305 17.1227 165.148 16.1093 166.215 15.384C167.303 14.6587 168.54 14.296 169.927 14.296C171.164 14.296 172.273 14.6053 173.255 15.224C173.974 15.6526 174.529 16.18 174.919 16.8062V14.744H180.615V31H174.919V28.8227C174.529 29.4556 173.974 29.9787 173.255 30.392C172.273 30.968 171.164 31.256 169.927 31.256ZM171.719 26.936C172.721 26.936 173.5 26.584 174.055 25.88C174.631 25.176 174.919 24.1627 174.919 22.84C174.919 21.4747 174.641 20.44 174.087 19.736C173.532 19.032 172.743 18.68 171.719 18.68C170.716 18.68 169.927 19.0533 169.351 19.8C168.775 20.5253 168.487 21.56 168.487 22.904C168.487 24.2053 168.764 25.208 169.319 25.912C169.873 26.5947 170.673 26.936 171.719 26.936Z" fill="#282828"/><path d="M184.313 17.08C184.356 17.8693 184.377 18.648 184.377 19.416V31H190.169V22.84C190.169 22.0293 190.318 21.368 190.617 20.856C190.916 20.344 191.332 19.9707 191.865 19.736C192.398 19.48 193.049 19.352 193.817 19.352C194.67 19.352 195.556 19.5653 196.473 19.992V14.712C196.26 14.6053 196.004 14.52 195.705 14.456C195.406 14.392 195.054 14.36 194.649 14.36C193.412 14.36 192.302 14.7333 191.321 15.48C190.681 15.9782 190.206 16.638 189.898 17.4592L189.561 14.744H184.121C184.228 15.512 184.292 16.2907 184.313 17.08Z" fill="#282828"/><path d="M203.238 29.368C202.129 28.1093 201.574 26.4027 201.574 24.248V19H198.534V14.744H201.574V11.064L207.366 9.208V14.744H211.27V19H207.366V24.248C207.366 24.7813 207.473 25.2293 207.686 25.592C207.921 25.9333 208.219 26.1893 208.582 26.36C208.945 26.5093 209.339 26.584 209.766 26.584C209.979 26.584 210.203 26.5733 210.438 26.552C210.694 26.5093 210.982 26.456 211.302 26.392V30.776C210.811 30.968 210.321 31.096 209.83 31.16C209.339 31.224 208.827 31.256 208.294 31.256C206.054 31.256 204.369 30.6267 203.238 29.368Z" fill="#282828"/><path d="M220.432 25.048H214.384V31H220.432V25.048Z" fill="#282828"/></svg>